PathFileType	4	(X/Y/Z)	C:\Users\86182\Documents\cortex\Trimmed_M4_H13.trc
DataRate	CameraRate	NumFrames	NumMarkers	Units	OrigDataRate	OrigDataStartFrame	OrigNumFrames
100.00	100.00	       154	2	mm	100.00	721	       901
Frame#	Time	gripper			box			
		X1	Y1	Z1	X2	Y2	Z2	

721	7.200	276.05328	151.12129	292.32715	278.10922	147.78050	156.75890	
722	7.210	276.05640	151.12044	292.32642	278.11575	147.77632	156.75929	
723	7.220	276.05988	151.11948	292.32553	278.12289	147.77188	156.75919	
724	7.230	276.06384	151.11839	292.32452	278.13034	147.76740	156.75874	
725	7.240	276.06827	151.11719	292.32343	278.13751	147.76312	156.75807	
726	7.250	276.07288	151.11592	292.32230	278.14337	147.75945	156.75710	
727	7.260	276.07693	151.11482	292.32129	278.14731	147.75676	156.75577	
728	7.270	276.07956	151.11411	292.32062	278.14941	147.75522	156.75415	
729	7.280	276.08047	151.11385	292.32037	278.15012	147.75471	156.75224	
730	7.290	276.08005	151.11397	292.32050	278.14954	147.75510	156.75020	
731	7.300	276.07907	151.11423	292.32074	278.14771	147.75618	156.74861	
732	7.310	276.07837	151.11441	292.32095	278.14456	147.75798	156.74799	
733	7.320	276.07816	151.11444	292.32101	278.14011	147.76039	156.74818	
734	7.330	276.07822	151.11441	292.32101	278.13474	147.76315	156.74838	
735	7.340	276.07813	151.11444	292.32104	278.12900	147.76581	156.74815	
736	7.350	276.07770	151.11455	292.32117	278.12381	147.76805	156.74786	
737	7.360	276.07697	151.11475	292.32135	278.12006	147.76976	156.74831	
738	7.370	276.07611	151.11499	292.32159	278.11826	147.77081	156.74983	
739	7.380	276.07529	151.11522	292.32178	278.11868	147.77109	156.75233	
740	7.390	276.07452	151.11543	292.32196	278.12137	147.77043	156.75542	
741	7.400	276.07391	151.11560	292.32211	278.12637	147.76871	156.75880	
742	7.410	276.07379	151.11563	292.32214	278.13367	147.76573	156.76228	
743	7.420	276.07462	151.11540	292.32196	278.14236	147.76186	156.76556	
744	7.430	276.07639	151.11490	292.32153	278.15079	147.75786	156.76816	
745	7.440	276.07867	151.11427	292.32095	278.15726	147.75455	156.76955	
746	7.450	276.08072	151.11371	292.32043	278.16089	147.75246	156.76949	
747	7.460	276.08221	151.11330	292.32007	278.16138	147.75197	156.76799	
748	7.470	276.08295	151.11310	292.31989	278.15854	147.75319	156.76530	
749	7.480	276.08304	151.11307	292.31989	278.15268	147.75589	156.76169	
750	7.490	276.08255	151.11320	292.32001	278.14505	147.75946	156.75777	
751	7.500	276.08170	151.11343	292.32019	278.13699	147.76332	156.75452	
752	7.510	276.08063	151.11374	292.32050	278.12952	147.76709	156.75267	
753	7.520	276.07925	151.11411	292.32080	278.12292	147.77061	156.75235	
754	7.530	276.07751	151.11458	292.32126	278.11703	147.77397	156.75287	
755	7.540	276.07538	151.11517	292.32178	278.11145	147.77715	156.75311	
756	7.550	276.07327	151.11575	292.32230	278.10629	147.77982	156.75223	
757	7.560	276.07150	151.11624	292.32272	278.10211	147.78140	156.75006	
758	7.570	276.07034	151.11658	292.32300	278.09937	147.78174	156.74722	
759	7.580	276.07010	151.11667	292.32300	278.09814	147.78107	156.74460	
760	7.590	276.07104	151.11646	292.32272	278.09879	147.77957	156.74298	
761	7.600	276.07303	151.11597	292.32214	278.10178	147.77721	156.74278	
762	7.610	276.07568	151.11531	292.32135	278.10733	147.77400	156.74388	
763	7.620	276.07858	151.11459	292.32050	278.11502	147.77017	156.74576	
764	7.630	276.08170	151.11383	292.31964	278.12399	147.76602	156.74768	
765	7.640	276.08478	151.11302	292.31879	278.13309	147.76198	156.74910	
766	7.650	276.08746	151.11226	292.31818	278.14087	147.75856	156.74968	
767	7.660	276.08929	151.11169	292.31781	278.14618	147.75633	156.74931	
768	7.670	276.09015	151.11137	292.31775	278.14847	147.75568	156.74818	
769	7.680	276.08994	151.11134	292.31793	278.14746	147.75670	156.74672	
770	7.690	276.08865	151.11162	292.31836	278.14337	147.75922	156.74541	
771	7.700	276.08643	151.11217	292.31897	278.13687	147.76270	156.74448	
772	7.710	276.08344	151.11298	292.31976	278.12921	147.76643	156.74377	
773	7.720	276.07986	151.11394	292.32068	278.12170	147.76982	156.74298	
774	7.730	276.07623	151.11494	292.32159	278.11508	147.77264	156.74219	
775	7.740	276.07315	151.11578	292.32233	278.10971	147.77502	156.74185	
776	7.750	276.07135	151.11629	292.32275	278.10611	147.77682	156.74252	
777	7.760	276.07071	151.11647	292.32291	278.10468	147.77769	156.74431	
778	7.770	276.07065	151.11649	292.32294	278.10538	147.77745	156.74672	
779	7.780	276.07056	151.11652	292.32294	278.10754	147.77629	156.74907	
780	7.790	276.07047	151.11655	292.32297	278.11060	147.77446	156.75078	
781	7.800	276.07080	151.11646	292.32288	278.11429	147.77216	156.75153	
782	7.810	276.07202	151.11612	292.32257	278.11829	147.76964	156.75121	
783	7.820	276.07413	151.11552	292.32205	278.12247	147.76709	156.74997	
784	7.830	276.07687	151.11478	292.32138	278.12674	147.76466	156.74832	
785	7.840	276.07959	151.11401	292.32074	278.13083	147.76250	156.74683	
786	7.850	276.08182	151.11340	292.32019	278.13434	147.76074	156.74576	
787	7.860	276.08313	151.11304	292.31985	278.13678	147.75951	156.74512	
788	7.870	276.08337	151.11298	292.31979	278.13724	147.75923	156.74472	
789	7.880	276.08252	151.11324	292.31998	278.13449	147.76056	156.74420	
790	7.890	276.08075	151.11374	292.32037	278.12799	147.76379	156.74304	
791	7.900	276.07831	151.11446	292.32092	278.11838	147.76851	156.74106	
792	7.910	276.07535	151.11531	292.32159	278.10742	147.77373	156.73842	
793	7.920	276.07208	151.11626	292.32233	278.09720	147.77840	156.73557	
794	7.930	276.06882	151.11719	292.32306	278.08954	147.78171	156.73299	
795	7.940	276.06622	151.11792	292.32367	278.08527	147.78339	156.73106	
796	7.950	276.06500	151.11824	292.32401	278.08444	147.78342	156.73013	
797	7.960	276.06552	151.11806	292.32397	278.08701	147.78181	156.73045	
798	7.970	276.06741	151.11748	292.32355	278.09262	147.77878	156.73192	
799	7.980	276.07010	151.11670	292.32294	278.10013	147.77486	156.73404	
800	7.990	276.07321	151.11584	292.32220	278.10809	147.77081	156.73624	
801	8.000	276.07657	151.11493	292.32135	278.11548	147.76729	156.73825	
802	8.010	276.07993	151.11406	292.32043	278.12161	147.76469	156.73999	
803	8.020	276.08279	151.11337	292.31958	278.12628	147.76317	156.74127	
804	8.030	276.08490	151.11292	292.31891	278.12955	147.76262	156.74187	
805	8.040	276.08627	151.11267	292.31836	278.13168	147.76279	156.74162	
806	8.050	276.08704	151.11261	292.31793	278.13275	147.76340	156.74055	
807	8.060	276.08725	151.11267	292.31769	278.13269	147.76422	156.73882	
808	8.070	276.08710	151.11279	292.31763	278.13147	147.76505	156.73666	
809	8.080	276.08658	151.11296	292.31772	278.12949	147.76578	156.73453	
810	8.090	276.08560	151.11316	292.31805	278.12711	147.76649	156.73273	
811	8.100	276.08423	151.11340	292.31860	278.12451	147.76730	156.73137	
812	8.110	276.08273	151.11365	292.31921	278.12177	147.76819	156.73022	
813	8.120	276.08136	151.11386	292.31982	278.11887	147.76909	156.72914	
814	8.130	276.08029	151.11401	292.32028	278.11594	147.76990	156.72852	
815	8.140	276.07953	151.11412	292.32062	278.11328	147.77057	156.72893	
816	8.150	276.07913	151.11418	292.32080	278.11115	147.77109	156.73059	
817	8.160	276.07916	151.11417	292.32080	278.10965	147.77161	156.73311	
818	8.170	276.07983	151.11403	292.32056	278.10886	147.77222	156.73595	
819	8.180	276.08127	151.11372	292.32007	278.10873	147.77299	156.73865	
820	8.190	276.08340	151.11325	292.31937	278.10919	147.77390	156.74097	
821	8.200	276.08603	151.11267	292.31851	278.11017	147.77478	156.74280	
822	8.210	276.08868	151.11208	292.31766	278.11169	147.77534	156.74402	
823	8.220	276.09076	151.11162	292.31699	278.11371	147.77541	156.74460	
824	8.230	276.09177	151.11139	292.31665	278.11606	147.77490	156.74472	
825	8.240	276.09146	151.11148	292.31671	278.11862	147.77405	156.74467	
826	8.250	276.08984	151.11188	292.31717	278.12100	147.77322	156.74471	
827	8.260	276.08728	151.11252	292.31790	278.12283	147.77274	156.74483	
828	8.270	276.08432	151.11327	292.31873	278.12375	147.77252	156.74483	
829	8.280	276.08163	151.11395	292.31946	278.12378	147.77235	156.74452	
830	8.290	276.07950	151.11450	292.32007	278.12289	147.77213	156.74373	
831	8.300	276.07779	151.11494	292.32053	278.12112	147.77196	156.74236	
832	8.310	276.07629	151.11534	292.32092	278.11844	147.77217	156.74068	
833	8.320	276.07489	151.11574	292.32126	278.11490	147.77307	156.73906	
834	8.330	276.07364	151.11609	292.32156	278.11069	147.77477	156.73784	
835	8.340	276.07251	151.11638	292.32187	278.10608	147.77725	156.73723	
836	8.350	276.07135	151.11664	292.32220	278.10126	147.78059	156.73744	
837	8.360	276.07028	151.11685	292.32260	278.09650	147.78464	156.73860	
838	8.370	276.06970	151.11693	292.32288	278.09225	147.78893	156.74049	
839	8.380	276.07007	151.11676	292.32291	278.08899	147.79272	156.74255	
840	8.390	276.07172	151.11626	292.32257	278.08710	147.79527	156.74414	
841	8.400	276.07465	151.11540	292.32193	278.08698	147.79601	156.74486	
842	8.410	276.07846	151.11433	292.32101	278.08871	147.79482	156.74487	
843	8.420	276.08240	151.11322	292.32007	278.09207	147.79211	156.74458	
844	8.430	276.08591	151.11226	292.31921	278.09647	147.78853	156.74443	
845	8.440	276.08859	151.11151	292.31854	278.10126	147.78465	156.74469	
846	8.450	276.09021	151.11107	292.31815	278.10587	147.78094	156.74544	
847	8.460	276.09061	151.11096	292.31805	278.11002	147.77769	156.74637	
848	8.470	276.08984	151.11119	292.31824	278.11343	147.77504	156.74686	
849	8.480	276.08804	151.11168	292.31866	278.11563	147.77318	156.74637	
850	8.490	276.08560	151.11237	292.31924	278.11609	147.77229	156.74463	
851	8.500	276.08286	151.11313	292.31992	278.11484	147.77243	156.74187	
852	8.510	276.08026	151.11385	292.32056	278.11237	147.77348	156.73874	
853	8.520	276.07822	151.11441	292.32104	278.10916	147.77521	156.73595	
854	8.530	276.07690	151.11476	292.32138	278.10577	147.77734	156.73387	
855	8.540	276.07660	151.11485	292.32147	278.10266	147.77954	156.73254	
856	8.550	276.07733	151.11465	292.32129	278.10025	147.78140	156.73189	
857	8.560	276.07898	151.11418	292.32086	278.09891	147.78262	156.73164	
858	8.570	276.08118	151.11359	292.32031	278.09891	147.78300	156.73146	
859	8.580	276.08331	151.11299	292.31982	278.10031	147.78236	156.73126	
860	8.590	276.08502	151.11252	292.31940	278.10315	147.78064	156.73146	
861	8.600	276.08606	151.11223	292.31915	278.10693	147.77811	156.73265	
862	8.610	276.08655	151.11209	292.31903	278.11099	147.77534	156.73526	
863	8.620	276.08655	151.11211	292.31903	278.11441	147.77307	156.73904	
864	8.630	276.08618	151.11221	292.31909	278.11642	147.77180	156.74326	
865	8.640	276.08551	151.11241	292.31924	278.11676	147.77170	156.74702	
866	8.650	276.08450	151.11270	292.31946	278.11569	147.77246	156.74974	
867	8.660	276.08322	151.11308	292.31970	278.11374	147.77373	156.75099	
868	8.670	276.08188	151.11349	292.32001	278.11157	147.77510	156.75063	
869	8.680	276.08075	151.11383	292.32022	278.10986	147.77620	156.74887	
870	8.690	276.07980	151.11412	292.32043	278.10907	147.77686	156.74632	
871	8.700	276.07874	151.11441	292.32068	278.10904	147.77733	156.74362	
872	8.710	276.07712	151.11485	292.32111	278.10950	147.77794	156.74149	
873	8.720	276.07477	151.11549	292.32166	278.11020	147.77882	156.74043	
874	8.730	276.07181	151.11632	292.32239	278.11075	147.77997	156.74055	
